<?xml version="1.0" encoding="UTF-8" standalone="no"?>
<!-- Created with Inkscape (http://www.inkscape.org/) -->

<svg
   xmlns:dc="http://purl.org/dc/elements/1.1/"
   xmlns:cc="http://creativecommons.org/ns#"
   xmlns:rdf="http://www.w3.org/1999/02/22-rdf-syntax-ns#"
   xmlns:svg="http://www.w3.org/2000/svg"
   xmlns="http://www.w3.org/2000/svg"
   xmlns:sodipodi="http://sodipodi.sourceforge.net/DTD/sodipodi-0.dtd"
   xmlns:inkscape="http://www.inkscape.org/namespaces/inkscape"
   width="512"
   height="512"
   viewBox="0 0 511.99999 511.99999"
   id="svg2"
   version="1.1"
   inkscape:version="0.91 r13725"
   sodipodi:docname="logo.svg">
  <defs
     id="defs4" />
  <sodipodi:namedview
     id="base"
     pagecolor="#ffffff"
     bordercolor="#666666"
     borderopacity="1.0"
     inkscape:pageopacity="0.0"
     inkscape:pageshadow="2"
     inkscape:zoom="0.98994949"
     inkscape:cx="687.18966"
     inkscape:cy="380.07818"
     inkscape:document-units="px"
     inkscape:current-layer="layer1"
     showgrid="false"
     units="px"
     inkscape:window-width="1920"
     inkscape:window-height="1050"
     inkscape:window-x="0"
     inkscape:window-y="30"
     inkscape:window-maximized="0" />
  <metadata
     id="metadata7">
    <rdf:RDF>
      <cc:Work
         rdf:about="">
        <dc:format>image/svg+xml</dc:format>
        <dc:type
           rdf:resource="http://purl.org/dc/dcmitype/StillImage" />
        <dc:title></dc:title>
      </cc:Work>
    </rdf:RDF>
  </metadata>
  <g
     inkscape:label="Layer 1"
     inkscape:groupmode="layer"
     id="layer1"
     transform="translate(0,-540.36219)">
    <path
       inkscape:connector-curvature="0"
       style="fill:none"
       d="m 304.57143,-188.78036 1367.99997,0 0,1367.99996 -1367.99997,0 z"
       id="path4748" />
    <g
       id="g5999"
       transform="translate(10e-7,-21.089845)">
      <path
         transform="translate(0,540.36219)"
         id="path4750"
         d="m 298.52344,105.19336 -79.73242,106.31055 60.59765,80.79687 -34.01953,25.51367 C 209.43631,269.97489 149.68945,190.24219 149.68945,190.24219 l -93.966794,125.28906 0.04102,13.56445 c 0.0293,2.19727 0.380859,4.32032 1.054687,6.3711 0.673829,2.02148 1.640625,3.82422 2.900391,5.40625 1.259766,1.55273 2.8125,2.79687 4.658203,3.73437 1.845703,0.9375 3.955078,1.40625 6.328125,1.40625 2.373047,0 4.466797,-0.46875 6.283203,-1.40625 1.845703,-0.9375 3.384766,-2.18164 4.615235,-3.73437 1.259765,-1.58203 2.210937,-3.38477 2.855468,-5.40625 0.673828,-2.05078 1.041016,-4.17383 1.09961,-6.3711 l 0.08789,-43.375 5.097657,0 0.04297,43.375 c -0.05859,2.90039 -0.570312,5.6543 -1.537109,8.26172 -0.9375,2.60742 -2.271484,4.89258 -4,6.85547 -1.728516,1.93359 -3.822266,3.48633 -6.283203,4.6582 -2.460938,1.14258 -5.214844,1.71289 -8.261719,1.71289 -3.076172,0 -5.845704,-0.57031 -8.30664,-1.71289 -2.460938,-1.14257 -4.554688,-2.69531 -6.283204,-4.6582 -1.728515,-1.96289 -3.076172,-4.24805 -4.042968,-6.85547 -0.966797,-2.60742 -1.464844,-5.36133 -1.494141,-8.26172 l 0.01367,-6.72461 -28.474609,37.9668 467.765618,0 -191.35937,-255.14453 z m -247.931643,217.17773 5.130859,-6.83984 -0.0918,-29.81055 -4.964843,0 -0.07422,36.65039 z M 340.82617,239.31836 c 17.73662,0 32.08008,14.34346 32.08008,32.08008 0,24.06129 -32.08008,59.58203 -32.08008,59.58203 0,0 -32.08203,-35.52074 -32.08203,-59.58203 0,-17.73662 14.34542,-32.08008 32.08203,-32.08008 z m 0,20.62305 c -6.32468,0 -11.45898,5.13234 -11.45898,11.45703 0,6.32468 5.1343,11.45898 11.45898,11.45898 6.32469,0 11.45703,-5.1343 11.45703,-11.45898 0,-6.32469 -5.13234,-11.45703 -11.45703,-11.45703 z M 178.85352,284.8418 c 3.10546,0 5.875,0.51367 8.30664,1.53906 2.46093,1.02539 4.58398,2.46094 6.37109,4.30664 1.78711,1.81641 3.20898,3.96875 4.26367,6.45898 1.08399,2.49024 1.78711,5.20118 2.10938,8.13086 l -5.23047,0 c -0.35156,-2.19726 -0.92188,-4.26367 -1.71289,-6.19726 -0.76172,-1.9336 -1.78711,-3.61719 -3.07617,-5.05274 -1.28907,-1.46484 -2.8418,-2.60742 -4.65821,-3.42773 -1.8164,-0.84961 -3.9414,-1.27539 -6.37304,-1.27539 -2.08008,0 -3.92579,0.35156 -5.53711,1.05469 -1.61133,0.70312 -3.03125,1.64062 -4.26172,2.8125 -1.20117,1.17187 -2.22657,2.54882 -3.07617,4.13086 -0.84961,1.55273 -1.53907,3.20898 -2.06641,4.96679 -0.52734,1.75782 -0.92188,3.5586 -1.18555,5.4043 -0.23437,1.81641 -0.35156,3.58984 -0.35156,5.31836 l 0,9.35937 c 0,1.72852 0.11719,3.51563 0.35156,5.36133 0.26367,1.8457 0.65821,3.64844 1.18555,5.40625 0.52734,1.75781 1.2168,3.42774 2.06641,5.00977 0.8496,1.55273 1.875,2.92968 3.07617,4.13086 1.23047,1.17187 2.65039,2.10937 4.26172,2.8125 1.61132,0.70312 3.45703,1.05468 5.53711,1.05468 2.46093,0 4.5996,-0.39648 6.41601,-1.1875 1.8457,-0.82031 3.39844,-1.94726 4.6582,-3.38281 1.28907,-1.43555 2.31446,-3.12109 3.07618,-5.05469 0.79101,-1.93359 1.34765,-4.01367 1.66992,-6.24023 l 5.23047,0 c -0.35157,2.87109 -1.07032,5.55273 -2.1543,8.04297 -1.08398,2.46094 -2.51953,4.61328 -4.30664,6.45898 -1.78711,1.81641 -3.91016,3.23827 -6.37109,4.26368 -2.43165,1.02539 -5.17188,1.5371 -8.21875,1.5371 -2.54883,0 -4.86329,-0.38086 -6.94336,-1.14257 -2.05078,-0.79102 -3.88086,-1.85939 -5.49219,-3.20703 -1.58203,-1.34766 -2.95899,-2.92969 -4.13086,-4.7461 -1.17188,-1.8164 -2.13867,-3.76562 -2.90039,-5.8457 -0.76172,-2.10938 -1.33399,-4.29102 -1.71484,-6.54688 -0.35157,-2.25586 -0.54102,-4.49804 -0.57032,-6.72461 l 0,-9.27148 c 0.0293,-2.22656 0.21875,-4.46875 0.57032,-6.72461 0.38085,-2.25586 0.95312,-4.42383 1.71484,-6.50391 0.76172,-2.10937 1.72851,-4.07226 2.90039,-5.88867 1.17187,-1.8164 2.54883,-3.39844 4.13086,-4.74609 1.61133,-1.37695 3.44141,-2.44531 5.49219,-3.20703 2.08007,-0.79102 4.39453,-1.1875 6.94336,-1.1875 z m -72.68555,0.8789 17.49023,0 c 2.57813,0.0293 5.08399,0.38086 7.51563,1.05469 2.46094,0.64453 4.64258,1.65625 6.54687,3.0332 1.9043,1.34766 3.42774,3.07618 4.57032,5.18555 1.17187,2.08008 1.74414,4.57031 1.71484,7.4707 0,1.81641 -0.2793,3.45704 -0.83594,4.92188 -0.55664,1.43555 -1.31836,2.72461 -2.28515,3.86719 -0.9375,1.11328 -2.05079,2.09375 -3.33985,2.94336 -1.28906,0.82031 -2.67969,1.50976 -4.17383,2.0664 1.84571,0.43945 3.54493,1.11328 5.09766,2.02149 1.58203,0.9082 2.94336,2.03515 4.08594,3.38281 1.14258,1.31836 2.03711,2.82812 2.68164,4.52734 0.67383,1.69922 1.00976,3.5293 1.00976,5.49219 0.0293,2.8418 -0.49804,5.37695 -1.58203,7.60352 -1.08398,2.19726 -2.54883,4.07226 -4.39453,5.625 -1.8457,1.52343 -3.98437,2.69531 -6.41601,3.51562 -2.40235,0.82031 -4.92188,1.24414 -7.5586,1.27344 l -20.12695,0 0,-63.98438 z m 5.27344,4.61524 0,24.08203 12.87695,0 c 1.8457,-0.0293 3.63281,-0.29297 5.36133,-0.79102 1.72851,-0.49804 3.25195,-1.24609 4.57031,-2.24218 1.34766,-0.9961 2.43164,-2.24024 3.25195,-3.73438 0.82032,-1.49414 1.23047,-3.26758 1.23047,-5.31836 0,-2.13867 -0.42578,-3.95508 -1.27539,-5.44922 -0.84961,-1.52343 -1.97656,-2.7539 -3.38281,-3.6914 -1.40625,-0.9668 -3.00391,-1.66993 -4.79102,-2.10938 -1.78711,-0.46875 -3.61718,-0.7168 -5.49218,-0.74609 l -12.34961,0 z m 0,28.60742 0,26.19141 14.98632,0 c 1.9336,-0.0293 3.7793,-0.35157 5.53711,-0.9668 1.75782,-0.64453 3.29494,-1.53711 4.61328,-2.67969 1.34766,-1.14258 2.40235,-2.51953 3.16407,-4.13086 0.79101,-1.64062 1.1875,-3.50195 1.1875,-5.58203 0,-2.02148 -0.38086,-3.80859 -1.14258,-5.36133 -0.73242,-1.58203 -1.75781,-2.91406 -3.07617,-3.99804 -1.28906,-1.08399 -2.79883,-1.91993 -4.52735,-2.50586 -1.69921,-0.58594 -3.48632,-0.90821 -5.36132,-0.9668 l -15.38086,0 z m 67.41211,46.89844 c -2.54883,0 -4.86329,0.39648 -6.94336,1.1875 -2.05078,0.76172 -3.88086,1.83008 -5.49219,3.20703 -1.58203,1.34765 -2.95899,2.92969 -4.13086,4.74609 -1.17188,1.81641 -2.13867,3.7793 -2.90039,5.88867 -0.76172,2.08008 -1.33399,4.24805 -1.71484,6.50391 -0.35157,2.25586 -0.54102,4.49805 -0.57032,6.72461 l 0,9.27148 c 0.0293,2.22657 0.21875,4.46875 0.57032,6.72461 0.38085,2.25586 0.95312,4.4375 1.71484,6.54688 0.76172,2.08008 1.72851,4.0293 2.90039,5.8457 1.17187,1.81641 2.54883,3.39843 4.13086,4.7461 1.61133,1.34764 3.44141,2.41601 5.49219,3.20703 2.08007,0.76171 4.39453,1.14257 6.94336,1.14257 3.04687,0 5.7871,-0.51171 8.21875,-1.5371 2.46093,-1.0254 4.58398,-2.44727 6.37109,-4.26368 1.78711,-1.8457 3.22266,-3.99804 4.30664,-6.45898 1.08398,-2.49024 1.80273,-5.17188 2.1543,-8.04297 l -5.23047,0 c -0.32227,2.22656 -0.87891,4.30664 -1.66992,6.24023 -0.76172,1.9336 -1.78711,3.61914 -3.07618,5.05469 -1.25976,1.43555 -2.8125,2.5625 -4.6582,3.38281 -1.81641,0.79102 -3.95508,1.1875 -6.41601,1.1875 -2.08008,0 -3.92579,-0.35156 -5.53711,-1.05468 -1.61133,-0.70313 -3.03125,-1.64063 -4.26172,-2.8125 -1.20117,-1.20118 -2.22657,-2.57813 -3.07617,-4.13086 -0.84961,-1.58203 -1.53907,-3.25196 -2.06641,-5.00977 -0.52734,-1.75781 -0.92188,-3.56055 -1.18555,-5.40625 -0.23437,-1.8457 -0.35156,-3.63281 -0.35156,-5.36133 l 0,-9.35937 c 0,-1.72852 0.11719,-3.50195 0.35156,-5.31836 0.26367,-1.8457 0.65821,-3.64648 1.18555,-5.4043 0.52734,-1.75781 1.2168,-3.41406 2.06641,-4.96679 0.8496,-1.58204 1.875,-2.95899 3.07617,-4.13086 1.23047,-1.17188 2.65039,-2.10938 4.26172,-2.8125 1.61132,-0.70313 3.45703,-1.05469 5.53711,-1.05469 2.43164,0 4.55664,0.42578 6.37304,1.27539 1.81641,0.82031 3.36914,1.96289 4.65821,3.42773 1.28906,1.43555 2.31445,3.11914 3.07617,5.05274 0.79101,1.93359 1.36133,4 1.71289,6.19726 l 5.23047,0 c -0.32227,-2.92968 -1.02539,-5.64062 -2.10938,-8.13086 -1.05469,-2.49023 -2.47656,-4.64257 -4.26367,-6.45898 -1.78711,-1.8457 -3.91016,-3.28125 -6.37109,-4.30664 -2.43164,-1.02539 -5.20118,-1.53906 -8.30664,-1.53906 z m 53.83398,16.43554 c -2.51953,0 -4.89258,0.35157 -7.11914,1.05469 -2.19727,0.70313 -4.13086,1.68555 -5.80078,2.94531 -1.66992,1.23047 -3.00391,2.69531 -4,4.39454 -0.9668,1.6992 -1.49414,3.55859 -1.58203,5.58007 l 5.27343,0.0449 c 0.0586,-1.49415 0.45508,-2.82813 1.1875,-4 0.73243,-1.20118 1.6836,-2.21093 2.85547,-3.03126 1.20117,-0.82031 2.56446,-1.45117 4.08789,-1.89062 1.55274,-0.43945 3.17774,-0.6582 4.87696,-0.6582 1.875,0 3.60351,0.23437 5.18554,0.70312 1.61133,0.46875 2.98828,1.17188 4.13086,2.10938 1.17188,0.9082 2.09571,2.05078 2.76953,3.42773 0.67383,1.34766 1.02539,2.91406 1.05469,4.70117 l 0,5.40625 -10.2832,0 c -2.95899,0 -5.78711,0.27735 -8.48242,0.83399 -2.69532,0.55664 -5.06836,1.43554 -7.11914,2.63672 -2.05078,1.17187 -3.67578,2.71093 -4.87696,4.61523 -1.20117,1.9043 -1.80273,4.21875 -1.80273,6.94336 0,2.05078 0.39648,3.91016 1.1875,5.58008 0.82031,1.64062 1.93359,3.04687 3.33984,4.21875 1.43555,1.17187 3.10547,2.08008 5.00977,2.72461 1.93359,0.64453 4.01367,0.96679 6.24023,0.96679 1.78711,0 3.5,-0.20507 5.14063,-0.61523 1.64062,-0.38086 3.16406,-0.9082 4.57031,-1.58203 1.43555,-0.70313 2.75391,-1.52344 3.95508,-2.46094 1.20117,-0.9375 2.25586,-1.96289 3.16406,-3.07617 0.0586,1.23047 0.17578,2.44727 0.35156,3.64844 0.17578,1.17187 0.42578,2.24023 0.74805,3.20703 l 5.625,0 -0.0449,-0.52735 c -0.41016,-1.46484 -0.76172,-3.00195 -1.05469,-4.61328 -0.26367,-1.61133 -0.39453,-3.20898 -0.39453,-4.79101 l 0,-23.02735 c -0.0293,-2.57812 -0.52734,-4.83398 -1.49414,-6.76757 -0.9375,-1.9336 -2.22656,-3.54493 -3.86719,-4.83399 -1.61133,-1.28906 -3.53125,-2.25586 -5.75781,-2.90039 -2.19727,-0.64453 -4.55469,-0.9668 -7.07422,-0.9668 z m 46.00977,0 c -2.57813,0.0293 -4.7168,0.61524 -6.41602,1.75782 -1.66992,1.11328 -2.98828,2.59375 -3.95508,4.43945 l -0.13086,-5.31836 -4.74609,0 0,47.54883 4.96484,0 0.0449,-36.38672 c 0.23438,-0.9668 0.54102,-1.88867 0.92188,-2.76758 0.41016,-0.9082 0.9375,-1.69922 1.58203,-2.37305 0.67383,-0.70312 1.49414,-1.25976 2.46094,-1.66992 0.99609,-0.41015 2.19726,-0.63086 3.60351,-0.66015 1.40625,-0.0293 2.56446,0.1914 3.47266,0.66015 0.9082,0.46875 1.61132,1.08399 2.10938,1.84571 0.52734,0.76171 0.89257,1.625 1.09765,2.59179 0.20508,0.9668 0.30859,1.94922 0.30859,2.94531 l 0.043,35.81446 4.92188,0 0.0449,-36.47461 c 0.17578,-0.87891 0.43945,-1.74219 0.79102,-2.5918 0.38086,-0.8789 0.89257,-1.66992 1.53711,-2.37305 0.67382,-0.70312 1.50976,-1.27539 2.50586,-1.71484 1.02539,-0.43945 2.26953,-0.67383 3.73437,-0.70312 1.43555,-0.0293 2.60742,0.20507 3.51563,0.70312 0.9375,0.49805 1.65624,1.1582 2.15429,1.97852 0.52735,0.82031 0.89258,1.74217 1.09766,2.76758 0.20508,1.02539 0.30859,2.05078 0.30859,3.07617 l 0.043,35.33203 4.92188,0 0.0449,-35.33203 c 0,-1.75782 -0.19141,-3.42774 -0.57227,-5.00977 -0.35156,-1.58203 -0.95117,-2.97266 -1.80078,-4.17383 -0.84961,-1.20117 -1.96289,-2.15429 -3.33984,-2.85742 -1.37696,-0.70312 -3.0918,-1.05469 -5.14258,-1.05469 -2.60742,0.0293 -4.78906,0.64454 -6.54688,1.84571 -1.72851,1.17187 -3.09179,2.65234 -4.08789,4.43945 -0.32226,-0.9082 -0.74609,-1.74414 -1.27343,-2.50586 -0.52735,-0.79102 -1.17188,-1.46484 -1.9336,-2.02148 -0.76172,-0.55664 -1.66992,-0.98047 -2.72461,-1.27344 -1.02539,-0.32227 -2.21289,-0.48438 -3.56054,-0.48438 z m 62.92968,0 c -3.04687,0 -5.78515,0.64454 -8.21679,1.9336 -2.43164,1.28906 -4.48243,3.10547 -6.15235,5.44922 l -0.2207,-6.50391 -4.92188,0 0,65.83008 5.27344,0 0,-24.08203 c 1.66992,2.16797 3.73633,3.82422 6.19727,4.96679 2.46094,1.14258 5.16992,1.71289 8.1289,1.71289 3.22266,0 6.00586,-0.67382 8.34961,-2.02148 2.34375,-1.37695 4.27735,-3.17773 5.80078,-5.4043 1.55274,-2.25586 2.69532,-4.83398 3.42774,-7.73437 0.76172,-2.92969 1.14258,-5.9336 1.14258,-9.00977 l 0,-0.92187 c 0,-3.16407 -0.38086,-6.19727 -1.14258,-9.09766 -0.73242,-2.92969 -1.85938,-5.50781 -3.38281,-7.73437 -1.52344,-2.25586 -3.47266,-4.04297 -5.84571,-5.36133 -2.37304,-1.34766 -5.18554,-2.02149 -8.4375,-2.02149 z m 107.66602,0 c -2.25586,0 -4.45313,0.29297 -6.5918,0.87891 -2.13867,0.55664 -4.04297,1.39258 -5.71289,2.50586 -1.66992,1.11328 -3.01758,2.47461 -4.04297,4.08594 -1.02539,1.61133 -1.53711,3.44336 -1.53711,5.49414 0,2.16797 0.49805,3.99804 1.49414,5.49219 0.9961,1.46484 2.32813,2.71093 3.99805,3.73632 1.66992,1.02539 3.57422,1.875 5.71289,2.54883 2.13867,0.64453 4.35156,1.20117 6.63672,1.66992 1.875,0.38086 3.64648,0.83399 5.31641,1.36133 1.66992,0.52734 3.13476,1.1875 4.39453,1.97852 1.28906,0.76172 2.30078,1.68358 3.0332,2.76758 0.73242,1.08397 1.09766,2.35937 1.09766,3.82421 -0.0293,1.49414 -0.45313,2.78321 -1.27344,3.86719 -0.79102,1.05469 -1.83203,1.9336 -3.12109,2.63672 -1.25977,0.67383 -2.69531,1.18555 -4.30665,1.53711 -1.58203,0.32227 -3.17773,0.48437 -4.78906,0.48437 -1.58203,0 -3.19336,-0.14648 -4.83398,-0.43945 -1.64063,-0.32226 -3.16406,-0.84961 -4.57031,-1.58203 -1.37696,-0.76172 -2.54883,-1.77344 -3.51563,-3.0332 -0.9375,-1.25977 -1.49414,-2.82617 -1.66992,-4.70118 l -5.27344,0 c 0.0879,2.22657 0.67383,4.21876 1.75781,5.97657 1.08399,1.75781 2.51953,3.25195 4.30664,4.48242 1.81641,1.20117 3.89649,2.12305 6.24024,2.76758 2.37305,0.64453 4.89258,0.96679 7.55859,0.96679 2.37305,0 4.67188,-0.27734 6.89844,-0.83398 2.25586,-0.52734 4.24805,-1.33398 5.97656,-2.41797 1.75782,-1.11328 3.16406,-2.49023 4.21875,-4.13086 1.08399,-1.66992 1.62696,-3.61719 1.62696,-5.84375 0,-2.16797 -0.48438,-4.0293 -1.45118,-5.58203 -0.96679,-1.55273 -2.28515,-2.85547 -3.95507,-3.91016 -1.66993,-1.08398 -3.60352,-1.97851 -5.80079,-2.68164 -2.16796,-0.73242 -4.45312,-1.34765 -6.85546,-1.8457 -1.875,-0.38086 -3.64649,-0.79101 -5.31641,-1.23047 -1.64063,-0.46875 -3.07617,-1.03906 -4.30664,-1.71289 -1.23047,-0.70312 -2.21289,-1.55273 -2.94531,-2.54883 -0.70313,-1.02539 -1.03907,-2.28515 -1.00977,-3.77929 0,-1.40625 0.35156,-2.62305 1.05469,-3.64844 0.73242,-1.05469 1.68359,-1.91797 2.85547,-2.5918 1.20117,-0.70312 2.54882,-1.21679 4.04297,-1.53906 1.52343,-0.35156 3.07617,-0.52734 4.6582,-0.52734 1.69922,0 3.33984,0.2207 4.92187,0.66015 1.61133,0.43946 3.04688,1.06836 4.30664,1.88867 1.25977,0.82032 2.27149,1.84571 3.03321,3.07618 0.76172,1.20117 1.17187,2.56445 1.23047,4.08789 l 5.27343,0 c -0.0879,-2.25586 -0.63086,-4.26368 -1.62695,-6.02149 -0.99609,-1.75781 -2.34375,-3.23633 -4.04297,-4.4375 -1.66992,-1.23047 -3.63281,-2.15429 -5.88867,-2.76953 -2.22656,-0.64453 -4.62891,-0.9668 -7.20703,-0.9668 z m -73.125,0.87891 0,29.26758 c 0,3.04687 0.35156,5.75781 1.05469,8.13086 0.73242,2.37304 1.77343,4.3789 3.12109,6.01953 1.37695,1.64062 3.06055,2.88672 5.05273,3.73633 2.02149,0.84961 4.35157,1.27343 6.98829,1.27343 3.54492,0 6.60546,-0.73242 9.18359,-2.19726 2.60742,-1.46484 4.70312,-3.5 6.28516,-6.10742 l 0.26367,7.42578 4.92187,0 0,-47.54883 -5.31836,0 0.0449,33.79492 c -0.96679,3.10547 -2.68164,5.56641 -5.14257,7.38281 -2.46094,1.81641 -5.66797,2.72461 -9.62305,2.72461 -3.92578,0 -6.82617,-1.23047 -8.70117,-3.6914 -1.875,-2.46094 -2.8418,-6.08008 -2.90039,-10.85547 l 0,-29.35547 -5.23047,0 z m -35.72656,3.69141 c 2.69531,0 4.96484,0.58593 6.81054,1.75781 1.875,1.14258 3.39844,2.65234 4.57032,4.52734 1.17187,1.84571 2.02148,3.93946 2.54882,6.28321 0.52735,2.34375 0.79102,4.70312 0.79102,7.07617 l 0,0.92187 c 0,2.37305 -0.26367,4.7461 -0.79102,7.11914 -0.52734,2.34375 -1.37695,4.45313 -2.54882,6.32813 -1.14258,1.8457 -2.6504,3.35547 -4.52539,4.52734 -1.84571,1.17188 -4.10157,1.75781 -6.76758,1.75781 -2.95899,0 -5.58203,-0.71875 -7.86719,-2.15429 -2.28516,-1.43555 -4.04297,-3.38281 -5.27344,-5.84375 l 0,-23.55469 c 0.58594,-1.28906 1.30469,-2.46094 2.1543,-3.51563 0.87891,-1.08397 1.85937,-2.00781 2.94336,-2.76953 1.11328,-0.79101 2.33008,-1.39062 3.64844,-1.80078 1.34765,-0.43945 2.7832,-0.66015 4.30664,-0.66015 z m -104.41407,20.25976 9.58008,0 0,10.41406 c -0.61523,1.37696 -1.46484,2.65235 -2.54883,3.82422 -1.08398,1.14258 -2.33007,2.13868 -3.73632,2.98828 -1.40625,0.82032 -2.95899,1.46485 -4.65821,1.9336 -1.66992,0.46875 -3.42773,0.6875 -5.27344,0.6582 -1.55273,0 -3.00195,-0.20508 -4.3496,-0.61523 -1.34766,-0.43946 -2.51954,-1.05469 -3.51563,-1.84571 -0.99609,-0.82031 -1.78711,-1.80078 -2.37305,-2.94336 -0.58593,-1.14257 -0.8789,-2.43164 -0.8789,-3.86718 0,-2.02149 0.48242,-3.70703 1.44922,-5.05469 0.99609,-1.34766 2.31445,-2.41602 3.95507,-3.20703 1.64063,-0.82031 3.53125,-1.40625 5.66993,-1.75781 2.13867,-0.35157 4.36523,-0.52735 6.67968,-0.52735 z"
         inkscape:connector-curvature="0" />
      <flowRoot
         transform="translate(-164.89404,332.62618)"
         style="font-style:normal;font-variant:normal;font-weight:normal;font-stretch:normal;font-size:40px;line-height:89.99999762%;font-family:'Robot Mono Light';-inkscape-font-specification:'Robot Mono Light, ';letter-spacing:0px;word-spacing:0px;fill:#ff0000;fill-opacity:1;stroke:none;stroke-width:1px;stroke-linecap:butt;stroke-linejoin:miter;stroke-opacity:1"
         id="flowRoot5316"
         xml:space="preserve"><flowRegion
           id="flowRegion5318"><rect
             style="font-style:normal;font-variant:normal;font-weight:normal;font-stretch:normal;line-height:89.99999762%;font-family:'Robot Mono Light';-inkscape-font-specification:'Robot Mono Light, ';fill:#ff0000"
             y="331.31607"
             x="208.57143"
             height="487.42282"
             width="890.4176"
             id="rect5320" /></flowRegion><flowPara
           id="flowPara5334"
           style="font-style:normal;font-variant:normal;font-weight:300;font-stretch:normal;font-size:90px;line-height:89.99999762%;font-family:'Roboto Mono Light for Powerline';-inkscape-font-specification:'Roboto Mono Light for Powerline Light';fill:#ff0000" /><flowPara
           id="flowPara5347"
           style="font-style:normal;font-variant:normal;font-weight:300;font-stretch:normal;font-size:90px;line-height:89.99999762%;font-family:'Roboto Mono Light for Powerline';-inkscape-font-specification:'Roboto Mono Light for Powerline Light';fill:#ff0000" /><flowPara
           id="flowPara5357"
           style="font-style:normal;font-variant:normal;font-weight:300;font-stretch:normal;font-size:90px;line-height:89.99999762%;font-family:'Roboto Mono Light for Powerline';-inkscape-font-specification:'Roboto Mono Light for Powerline Light';fill:#ff0000">  C</flowPara><flowPara
           id="flowPara5978"
           style="font-style:normal;font-variant:normal;font-weight:300;font-stretch:normal;font-size:90px;line-height:89.99999762%;font-family:'Roboto Mono Light for Powerline';-inkscape-font-specification:'Roboto Mono Light for Powerline Light';fill:#ff0000">  C</flowPara></flowRoot>    </g>
    <flowRoot
       xml:space="preserve"
       id="flowRoot5324"
       style="fill:black;stroke:none;stroke-opacity:1;stroke-width:1px;stroke-linejoin:miter;stroke-linecap:butt;fill-opacity:1;font-family:sans-serif;font-style:normal;font-weight:normal;font-size:40px;line-height:125%;letter-spacing:0px;word-spacing:0px"><flowRegion
         id="flowRegion5326"><rect
           id="rect5328"
           width="11.428572"
           height="125.71429"
           x="425.71429"
           y="-962.28571" /></flowRegion><flowPara
         id="flowPara5330"></flowPara></flowRoot>    <flowRoot
       xml:space="preserve"
       id="flowRoot5349"
       style="fill:black;stroke:none;stroke-opacity:1;stroke-width:1px;stroke-linejoin:miter;stroke-linecap:butt;fill-opacity:1;font-family:sans-serif;font-style:normal;font-weight:normal;font-size:40px;line-height:125%;letter-spacing:0px;word-spacing:0px"><flowRegion
         id="flowRegion5351"><rect
           id="rect5353"
           width="161.6244"
           height="47.477169"
           x="59.598999"
           y="159.45676" /></flowRegion><flowPara
         id="flowPara5355"></flowPara></flowRoot>  </g>
</svg>
